<?xml version="1.0" encoding="UTF-8" standalone="no"?>
<!-- Created with Inkscape (http://www.inkscape.org/) -->

<svg
   xmlns:dc="http://purl.org/dc/elements/1.1/"
   xmlns:cc="http://creativecommons.org/ns#"
   xmlns:rdf="http://www.w3.org/1999/02/22-rdf-syntax-ns#"
   xmlns:svg="http://www.w3.org/2000/svg"
   xmlns="http://www.w3.org/2000/svg"
   xmlns:sodipodi="http://sodipodi.sourceforge.net/DTD/sodipodi-0.dtd"
   xmlns:inkscape="http://www.inkscape.org/namespaces/inkscape"
   version="1.0"
   width="48"
   height="48"
   id="svg3215"
   inkscape:version="0.48.4 r9939"
   sodipodi:docname="mono-dark.svg"
   style="display:inline">
  <metadata
     id="metadata12">
    <rdf:RDF>
      <cc:Work
         rdf:about="">
        <dc:format>image/svg+xml</dc:format>
        <dc:type
           rdf:resource="http://purl.org/dc/dcmitype/StillImage" />
      </cc:Work>
    </rdf:RDF>
  </metadata>
  <sodipodi:namedview
     pagecolor="#ffffff"
     bordercolor="#666666"
     borderopacity="1"
     objecttolerance="10"
     gridtolerance="10"
     guidetolerance="10"
     inkscape:pageopacity="0"
     inkscape:pageshadow="2"
     inkscape:window-width="1920"
     inkscape:window-height="1025"
     id="namedview10"
     showgrid="false"
     showguides="true"
     inkscape:guide-bbox="true"
     inkscape:zoom="1"
     inkscape:cx="15.810801"
     inkscape:cy="24.511697"
     inkscape:window-x="0"
     inkscape:window-y="27"
     inkscape:window-maximized="1"
     inkscape:current-layer="svg3215"
     inkscape:snap-to-guides="false" />
  <defs
     id="defs3217" />
  <rect
     style="opacity:0.6;fill:none;stroke:#eae3d0;stroke-width:2.44444442;stroke-opacity:1;display:inline"
     id="rect3951-0"
     width="41.555553"
     height="41.555557"
     x="3.2222223"
     y="3.2222233"
     rx="4.8888888"
     ry="4.8888888" />
  <path
     style="fill:#3a3935;fill-opacity:1;stroke:none;stroke-width:1;marker:none;visibility:visible;display:inline;overflow:visible;enable-background:accumulate"
     d="m 8.111111,4.444442 c -2.0524728,0 -3.6666665,1.614192 -3.6666665,3.666667 l 0,31.77778 c 0,2.052477 1.6141937,3.666666 3.6666665,3.666666 l 31.777777,0 c 2.052475,0 3.666667,-1.614189 3.666667,-3.666666 l 0,-31.77778 c 0,-2.052475 -1.614192,-3.666667 -3.666667,-3.666667 l -31.777777,0 z"
     id="rect3178-9-0-3-1"
     inkscape:connector-curvature="0" />
  <path
     inkscape:connector-curvature="0"
     id="path3771-0"
     d="m 24.111359,34.10824 c -1.920421,-1.274779 -3.090385,-2.317578 -5.531497,-4.678912 -2.362,-2.44151 -3.405377,-3.612155 -4.680812,-5.530797 l -9.17e-4,2.42e-4 c -2.430914,-3.662022 -2.796814,-7.0532 -0.967272,-10.040555 0.393262,-0.641423 1.796896,-1.981467 2.343618,-2.070689 0.663017,-0.09044 4.782336,4.851733 4.819775,6.1094 0.01711,0.5786 -1.21342,1.259622 -1.965986,1.589622 -0.970866,1.052089 -0.712589,1.699867 -0.188026,3.152844 1.905393,2.795221 4.598381,5.56478 7.42843,7.428911 1.454556,0.524822 2.100694,0.782711 3.15294,-0.198001 0.331888,-0.75338 1.012103,-1.982444 1.589528,-1.9646 1.259217,0.03176 6.216415,4.156532 6.109368,4.819219 -0.08827,0.545602 -1.427526,1.951154 -2.069931,2.343978 -2.987878,1.830155 -6.378271,1.463977 -10.039631,-0.968975 l 4.08e-4,-4.9e-4"
     style="fill:#eae3d1;fill-opacity:1;stroke:none;display:inline"
     sodipodi:nodetypes="cccssssccccssssc" />
</svg>
