<?xml version="1.0" encoding="UTF-8" standalone="no"?>
<!-- Created with Inkscape (http://www.inkscape.org/) -->

<svg
   xmlns:dc="http://purl.org/dc/elements/1.1/"
   xmlns:cc="http://creativecommons.org/ns#"
   xmlns:rdf="http://www.w3.org/1999/02/22-rdf-syntax-ns#"
   xmlns:svg="http://www.w3.org/2000/svg"
   xmlns="http://www.w3.org/2000/svg"
   xmlns:sodipodi="http://sodipodi.sourceforge.net/DTD/sodipodi-0.dtd"
   xmlns:inkscape="http://www.inkscape.org/namespaces/inkscape"
   id="svg7384"
   sodipodi:docname="roger-call-in-symbolic.svg"
   version="1.1"
   inkscape:version="0.48.5 r10040"
   height="18"
   width="18">
  <metadata
     id="metadata90">
    <rdf:RDF>
      <cc:Work
         rdf:about="">
        <dc:format>image/svg+xml</dc:format>
        <dc:type
           rdf:resource="http://purl.org/dc/dcmitype/StillImage" />
        <dc:title>Roger Router</dc:title>
        <cc:license
           rdf:resource="http://creativecommons.org/licenses/by-sa/3.0/" />
        <dc:description>Roger Router - Icon Call In Symbolic</dc:description>
      </cc:Work>
      <cc:License
         rdf:about="http://creativecommons.org/licenses/by-sa/3.0/">
        <cc:permits
           rdf:resource="http://creativecommons.org/ns#Reproduction" />
        <cc:permits
           rdf:resource="http://creativecommons.org/ns#Distribution" />
        <cc:requires
           rdf:resource="http://creativecommons.org/ns#Notice" />
        <cc:requires
           rdf:resource="http://creativecommons.org/ns#Attribution" />
        <cc:permits
           rdf:resource="http://creativecommons.org/ns#DerivativeWorks" />
        <cc:requires
           rdf:resource="http://creativecommons.org/ns#ShareAlike" />
      </cc:License>
    </rdf:RDF>
  </metadata>
  <sodipodi:namedview
     inkscape:cy="5.632073"
     pagecolor="#555753"
     borderopacity="1"
     showborder="true"
     inkscape:bbox-paths="false"
     guidetolerance="10000"
     inkscape:object-paths="true"
     inkscape:window-width="1920"
     showguides="true"
     inkscape:object-nodes="true"
     inkscape:snap-bbox="true"
     inkscape:pageshadow="2"
     inkscape:guide-bbox="true"
     inkscape:snap-nodes="false"
     bordercolor="#666666"
     objecttolerance="10000"
     id="namedview88"
     showgrid="true"
     inkscape:window-maximized="1"
     inkscape:window-x="0"
     inkscape:snap-global="true"
     inkscape:window-y="27"
     gridtolerance="10000"
     inkscape:window-height="1014"
     inkscape:snap-to-guides="true"
     inkscape:current-layer="layer12"
     inkscape:snap-bbox-midpoints="false"
     inkscape:zoom="14.142136"
     inkscape:cx="1.5236979"
     inkscape:snap-grids="true"
     inkscape:pageopacity="1">
    <inkscape:grid
       spacingx="1px"
       spacingy="1px"
       id="grid4866"
       empspacing="2"
       enabled="true"
       type="xygrid"
       snapvisiblegridlinesonly="true"
       visible="true" />
  </sodipodi:namedview>
  <title
     id="title9167">Roger Router</title>
  <defs
     id="defs7386">
    <inkscape:perspective
       sodipodi:type="inkscape:persp3d"
       inkscape:vp_x="0 : 8 : 1"
       inkscape:vp_y="0 : 1000 : 0"
       inkscape:vp_z="16 : 8 : 1"
       inkscape:persp3d-origin="8 : 5.3333333 : 1"
       id="perspective3786" />
  </defs>
  <g
     inkscape:label="status"
     transform="translate(-80.0002,-744)"
     inkscape:groupmode="layer"
     id="layer9"
     style="display:inline" />
  <g
     inkscape:label="devices"
     transform="translate(-80.0002,-744)"
     inkscape:groupmode="layer"
     id="layer10" />
  <g
     inkscape:label="apps"
     transform="translate(-80.0002,-744)"
     inkscape:groupmode="layer"
     id="layer11" />
  <g
     inkscape:label="places"
     transform="translate(-80.0002,-744)"
     inkscape:groupmode="layer"
     id="layer13" />
  <g
     inkscape:label="mimetypes"
     transform="translate(-80.0002,-744)"
     inkscape:groupmode="layer"
     id="layer14" />
  <g
     inkscape:label="emblems"
     transform="translate(-80.0002,-744)"
     inkscape:groupmode="layer"
     id="layer15"
     style="display:inline" />
  <g
     inkscape:label="categories"
     transform="translate(-80.0002,-744)"
     inkscape:groupmode="layer"
     id="g4953"
     style="display:inline" />
  <g
     inkscape:label="actions"
     transform="translate(-80.0002,-744)"
     inkscape:groupmode="layer"
     id="layer12"
     style="display:inline">
    <path
       inkscape:connector-curvature="0"
       d="M 94.707318,747.24898 C 93.245227,745.80477 91.507231,745.11447 89.743692,745 l -0.72586,0.73485 0.769289,0.75989 c 1.438323,0.12262 2.69894,0.61303 3.893834,1.79332 1.194892,1.18027 1.67811,2.45771 1.841104,3.87146 l 0.769289,0.75987 0.708852,-0.71761 c -0.100074,-1.60336 -0.830791,-3.50859 -2.292882,-4.9528 z"
       id="rect11714-3"
       sodipodi:nodetypes="scccscccs"
       style="color:#000000;fill:#bebebe;fill-opacity:1;fill-rule:nonzero;stroke:none;stroke-width:1;marker:none;visibility:visible;display:inline;overflow:visible;enable-background:accumulate" />
    <path
       inkscape:connector-curvature="0"
       d="m 92.615392,749.35547 c -0.983616,-0.97157 -2.156216,-1.4672 -3.166757,-1.33417 l -0.448434,0.45398 0.907966,0.89686 c 0.630067,0.0785 1.246917,0.33474 1.810367,0.89129 0.563451,0.55658 0.831109,1.17388 0.913517,1.79928 l 0.907967,0.89686 0.448425,-0.45399 c 0.09677,-1.00125 -0.407609,-2.19646 -1.373051,-3.15011 z"
       id="rect11703-1"
       sodipodi:nodetypes="scccscccs"
       style="color:#000000;fill:#bebebe;fill-opacity:1;fill-rule:nonzero;stroke:none;stroke-width:1;marker:none;visibility:visible;display:inline;overflow:visible;enable-background:accumulate" />
    <path
       inkscape:connector-curvature="0"
       d="m 83.40272,744.99446 c 1.02838,0.0575 1.77745,0.91285 2.42142,1.62959 0.62229,0.8025 1.25665,1.67883 1.43179,2.70068 8.7e-4,0.30542 -0.37882,0.45383 -0.54455,0.69129 -0.62769,0.56454 -1.27403,1.42332 -0.87497,2.30171 0.5623,1.11603 1.62398,1.85624 2.44322,2.77178 0.66353,0.66594 1.51297,1.57169 2.549,1.18775 0.76839,-0.29179 1.22061,-1.00069 1.8197,-1.48383 0.82889,0.0641 1.56017,0.57873 2.25356,1.00355 0.88857,0.64438 1.80891,1.43596 2.13125,2.52424 0.18953,0.86624 -0.72032,1.33136 -1.28297,1.78728 -1.40558,1.01821 -3.29374,1.15278 -4.90016,0.56984 -2.58725,-0.91897 -4.67216,-2.83124 -6.50822,-4.81203 -1.56928,-1.78463 -3.067734,-3.87719 -3.268889,-6.31944 -0.137797,-1.71753 0.737475,-3.42037 2.060869,-4.47555 l 0.13306,-0.0525 0.13586,-0.0243 z"
       id="path44084"
       style="fill:#bebebe;fill-opacity:1;stroke:none;display:inline;enable-background:new;opacity:1" />
  </g>
</svg>
